<svg width="11" height="11" viewBox="0 0 11 11" fill="none" xmlns="http://www.w3.org/2000/svg">
<g clip-path="url(#clip0_2144_271)">
<path d="M6.67161 7.12595L6.46284 7.34572C6.46284 7.34572 5.96665 7.86813 4.61227 6.4422C3.25791 5.01628 3.75409 4.49391 3.75409 4.49391L3.88555 4.35551C4.20939 4.01457 4.23991 3.4672 3.95738 3.06759L3.37943 2.25016C3.02973 1.75556 2.354 1.69023 1.95318 2.11221L1.23378 2.86961C1.03504 3.07885 0.901859 3.35008 0.918011 3.65097C0.95933 4.42075 1.28826 6.07696 3.12373 8.00938C5.07015 10.0586 6.89647 10.14 7.64332 10.0663C7.87955 10.043 8.08497 9.91564 8.25052 9.74133L8.90163 9.05585C9.34113 8.59316 9.2172 7.79993 8.65487 7.47625L7.77922 6.97222C7.40999 6.75969 6.96018 6.82212 6.67161 7.12595Z" fill="#FF562F"/>
<path d="M7.79167 5.50008C9.05731 5.50008 10.0833 4.47406 10.0833 3.20841C10.0833 1.94276 9.05731 0.916748 7.79167 0.916748C6.52602 0.916748 5.5 1.94276 5.5 3.20841C5.5 3.57501 5.58607 3.9215 5.73911 4.22877C5.77981 4.31043 5.79333 4.40376 5.76978 4.49189L5.63328 5.00201C5.57402 5.22348 5.7766 5.42606 5.99807 5.3668L6.5082 5.23031C6.59633 5.20675 6.68965 5.22027 6.77132 5.26097C7.07859 5.41401 7.42509 5.50008 7.79167 5.50008Z" fill="#FF562F"/>
</g>
<defs>
<clipPath id="clip0_2144_271">
<rect width="11" height="11" fill="white"/>
</clipPath>
</defs>
</svg>
